

 ---- Somewhere 2010 Blu-ray Movie rip ----


Storyline:
Hollywood actor Johnny Marco, nested in his luxury hotel of choice, is a stimulated 

man. Drinking, parties and women keep a creeping boredom under wraps in between 

jobs. He is the occasional father of a bright girl, Cleo, who may be spoiled but 

doesn't act it. When Cleo's mother drops her off and leaves town, Johnny brings her 

along for the ride, but can he fit an 11-year-old girl into his privileged 

lifestyle?

More Movie info:  http://www.imdb.com/title/tt1421051/


Genre                            : Drama
Actors                           : Stephen Dorff - Chris Pontius
Source                           : Bluray
Container                        : Mkv
File size                        : 1.69 GiB
Duration                         : 1h 38mn
Overall bit rate                 : 2 450 Kbps
Encoded date                     : UTC 2011-01-02 06:52:13
Writing application              : mkvmerge v4.3.0 ('Escape from the Island') built 

on Sep  5 2010 10:30:51
Writing library                  : libebml v1.0.0 + libmatroska v1.0.0

Video
ID                               : 1
Format                           : AVC
Format/Info                      : Advanced Video Codec
Format profile                   : High@L3.1
Format settings, CABAC           : Yes
Format settings, ReFrames        : 4 frames
Format settings, GOP             : M=1, N=16
Codec ID                         : V_MPEG4/ISO/AVC
Duration                         : 1h 38mn
Bit rate                         : 2 002 Kbps
Width                            : 1 280 pixels
Height                           : 704 pixels
Display aspect ratio             : 16:9
Frame rate                       : 23.976 fps
Color space                      : YUV
Chroma subsampling               : 4:2:0
Bit depth                        : 8 bits
Scan type                        : Progressive
Bits/(Pixel*Frame)               : 0.093
Stream size                      : 1.34 GiB (80%)
Writing library                  : x264 core 105 r1724 b02df7b
Encoding settings                : cabac=1 / ref=3 / deblock=1:-1:-1 / 

analyse=0x3:0x113 / me=hex / subme=7 / psy=1 / psy_rd=1.00:0.15 / mixed_ref=1 / 

me_range=16 / chroma_me=1 / trellis=1 / 8x8dct=1 / cqm=0 / deadzone=21,11 / 

fast_pskip=1 / chroma_qp_offset=-3 / threads=3 / sliced_threads=0 / nr=0 / 

decimate=1 / interlaced=0 / constrained_intra=0 / bframes=3 / b_pyramid=2 / 

b_adapt=1 / b_bias=0 / direct=1 / weightb=1 / open_gop=0 / weightp=2 / keyint=250 / 

keyint_min=23 / scenecut=40 / intra_refresh=0 / rc_lookahead=40 / rc=2pass / 

mbtree=1 / bitrate=2002 / ratetol=1.0 / qcomp=0.60 / qpmin=10 / qpmax=51 / qpstep=4 

/ cplxblur=20.0 / qblur=0.5 / ip_ratio=1.40 / aq=1:1.00

Audio
ID                               : 2
Format                           : AC-3
Format/Info                      : Audio Coding 3
Mode extension                   : CM (complete main)
Codec ID                         : A_AC3
Duration                         : 1h 38mn
Bit rate mode                    : Constant
Bit rate                         : 448 Kbps
Channel(s)                       : 6 channels
Channel positions                : Front: L C R, Side: L R, LFE
Sampling rate                    : 48.0 KHz
Bit depth                        : 16 bits
Compression mode                 : Lossy
Stream size                      : 316 MiB (18%)
Language                         : English

Subtitles: English, for non english parts only!

More Subtitles: 
http://www.sub-titles.net 
http://subscene.com/

Movie snapshots included in torrent.

My torrents:  
http://thepiratebay.org/user/PetaFOX
